<?xml version="1.0" encoding="UTF-8"?>
<svg version="1.1" xmlns="http://www.w3.org/2000/svg" width="535" height="94">
<path d="M0 0 C176.55 0 353.1 0 535 0 C535 31.02 535 62.04 535 94 C358.45 94 181.9 94 0 94 C0 62.98 0 31.96 0 0 Z " fill="#FCFCFD" transform="translate(0,0)"/>
<path d="M0 0 C6.59735457 3.91717928 11.22447333 9.76307766 13.25 17.15625 C14.80414496 25.48202655 13.77019753 33.01123178 9.6875 40.5 C4.9657382 46.23506024 -0.95365792 49.75687932 -8.3125 50.77734375 C-14.229241 51.06624712 -19.05241286 49.13004357 -24.3125 46.5 C-24.30726318 47.19150146 -24.30202637 47.88300293 -24.29663086 48.59545898 C-24.275925 51.70946352 -24.26286037 54.82345361 -24.25 57.9375 C-24.24162109 59.02611328 -24.23324219 60.11472656 -24.22460938 61.23632812 C-24.22138672 62.27080078 -24.21816406 63.30527344 -24.21484375 64.37109375 C-24.20960693 65.32943115 -24.20437012 66.28776855 -24.19897461 67.27514648 C-24.3125 69.5 -24.3125 69.5 -25.3125 70.5 C-27.47730797 70.5989294 -29.64543785 70.629711 -31.8125 70.625 C-32.9984375 70.62757812 -34.184375 70.63015625 -35.40625 70.6328125 C-38.3125 70.5 -38.3125 70.5 -39.3125 69.5 C-39.41202293 67.35799676 -39.44049679 65.21267295 -39.44189453 63.06835938 C-39.44364685 62.39682327 -39.44539917 61.72528717 -39.44720459 61.03340149 C-39.4516223 58.80349172 -39.44868542 56.57366064 -39.4453125 54.34375 C-39.44598556 52.80057764 -39.44695561 51.25740539 -39.44821167 49.7142334 C-39.44968853 46.4759826 -39.44753447 43.23775933 -39.44287109 39.99951172 C-39.4371738 35.83957477 -39.44045287 31.67970234 -39.44644356 27.51976776 C-39.45004949 24.33200592 -39.44891044 21.14425949 -39.44631577 17.95649719 C-39.44564658 16.42222588 -39.44647461 14.88795318 -39.44879532 13.35368347 C-39.45132238 11.21296459 -39.44748054 9.07235158 -39.44189453 6.93164062 C-39.44109894 5.71109985 -39.44030334 4.49055908 -39.43948364 3.23303223 C-39.3125 0.5 -39.3125 0.5 -38.3125 -0.5 C-36.35827134 -0.65167148 -34.39740271 -0.72179996 -32.4375 -0.75 C-30.83261719 -0.78867187 -30.83261719 -0.78867187 -29.1953125 -0.828125 C-26.3125 -0.5 -26.3125 -0.5 -24.4296875 1.015625 C-24.06101563 1.50546875 -23.69234375 1.9953125 -23.3125 2.5 C-22.405 1.84 -21.4975 1.18 -20.5625 0.5 C-14.38404309 -3.00906275 -6.45188342 -2.81171573 0 0 Z " fill="#021931" transform="translate(158.3125,21.5)"/>
<path d="M0 0 C0.495 0.495 0.495 0.495 1 1 C1.66 0.01 2.32 -0.98 3 -2 C5.75 -2.36328125 5.75 -2.36328125 9 -2.3125 C10.60875 -2.30669922 10.60875 -2.30669922 12.25 -2.30078125 C15 -2 15 -2 17 0 C17.24723816 2.01808167 17.24723816 2.01808167 17.24291992 4.52563477 C17.24753487 5.93202965 17.24753487 5.93202965 17.25224304 7.36683655 C17.24505753 8.38144455 17.23787201 9.39605255 17.23046875 10.44140625 C17.23001053 11.47941879 17.22955231 12.51743134 17.2290802 13.5868988 C17.22605583 15.78344871 17.21816405 17.97999643 17.20581055 20.17651367 C17.1875568 23.55199722 17.18530079 26.92720664 17.18554688 30.30273438 C17.18063177 32.43229406 17.17480349 34.56185187 17.16796875 36.69140625 C17.16685593 37.70803848 17.1657431 38.72467072 17.16459656 39.77210999 C17.15821671 40.70655441 17.15183685 41.64099884 17.14526367 42.60375977 C17.13954597 43.84380516 17.13954597 43.84380516 17.13371277 45.10890198 C17 47 17 47 16 48 C13.8579034 48.15154969 11.70976538 48.22177745 9.5625 48.25 C8.38816406 48.27578125 7.21382812 48.3015625 6.00390625 48.328125 C5.01261719 48.21984375 4.02132812 48.1115625 3 48 C2.34 47.01 1.68 46.02 1 45 C-0.11375 45.66 -1.2275 46.32 -2.375 47 C-7.94215274 49.76390445 -13.23190706 49.9140749 -19.23828125 48.45703125 C-26.12361042 46.11005464 -30.33816696 42.31350525 -34 36 C-36.93007246 28.64856372 -37.23242654 20.23574497 -35.41796875 12.52734375 C-32.45289457 5.71715054 -26.16807987 0.33392837 -19.4375 -2.5 C-11.81476734 -3.60876111 -6.99495075 -3.06796086 0 0 Z " fill="#041B33" transform="translate(212,23)"/>
<path d="M0 0 C0.495 0.495 0.495 0.495 1 1 C1.66 0.01 2.32 -0.98 3 -2 C5.75 -2.36328125 5.75 -2.36328125 9 -2.3125 C10.60875 -2.30669922 10.60875 -2.30669922 12.25 -2.30078125 C15 -2 15 -2 17 0 C17.24723816 2.01808167 17.24723816 2.01808167 17.24291992 4.52563477 C17.24753487 5.93202965 17.24753487 5.93202965 17.25224304 7.36683655 C17.24505753 8.38144455 17.23787201 9.39605255 17.23046875 10.44140625 C17.23001053 11.47941879 17.22955231 12.51743134 17.2290802 13.5868988 C17.22605583 15.78344871 17.21816405 17.97999643 17.20581055 20.17651367 C17.1875568 23.55199722 17.18530079 26.92720664 17.18554688 30.30273438 C17.18063177 32.43229406 17.17480349 34.56185187 17.16796875 36.69140625 C17.16685593 37.70803848 17.1657431 38.72467072 17.16459656 39.77210999 C17.15821671 40.70655441 17.15183685 41.64099884 17.14526367 42.60375977 C17.13954597 43.84380516 17.13954597 43.84380516 17.13371277 45.10890198 C17 47 17 47 16 48 C13.8579034 48.15154969 11.70976538 48.22177745 9.5625 48.25 C8.38816406 48.27578125 7.21382813 48.3015625 6.00390625 48.328125 C5.01261719 48.21984375 4.02132812 48.1115625 3 48 C2.34 47.01 1.68 46.02 1 45 C-0.093125 45.66 -1.18625 46.32 -2.3125 47 C-8.10815721 49.8721841 -14.01649939 50.11426591 -20.234375 48.375 C-27.72919173 45.12143615 -32.94152654 38.41747082 -36 31 C-36.33753655 28.28564361 -36.52541974 25.89228894 -36.5 23.1875 C-36.49427979 22.48189941 -36.48855957 21.77629883 -36.48266602 21.04931641 C-36.20830074 13.01420146 -33.420655 8.04256849 -27.6875 2.625 C-18.77764488 -4.31774425 -10.04436463 -4.40542308 0 0 Z " fill="#031A32" transform="translate(410,23)"/>
<path d="M0 0 C2.26979665 -0.10794277 4.54105196 -0.18556176 6.8125 -0.25 C8.07707031 -0.29640625 9.34164062 -0.3428125 10.64453125 -0.390625 C14 0 14 0 15.58203125 1.62158203 C17.29642874 4.49721226 18.13890199 7.22076971 19.04296875 10.4453125 C19.39423828 11.68667969 19.74550781 12.92804687 20.10742188 14.20703125 C20.37317017 15.17116943 20.37317017 15.17116943 20.64428711 16.15478516 C21.18830053 18.12790348 21.74437287 20.0973053 22.30273438 22.06640625 C25 31.68448516 25 31.68448516 25 34 C25.66 34 26.32 34 27 34 C27.24234375 32.94683594 27.4846875 31.89367187 27.734375 30.80859375 C29.45608044 23.37474474 31.2143444 15.95030743 33.125 8.5625 C33.43695313 7.34691406 33.74890625 6.13132812 34.0703125 4.87890625 C35 2 35 2 37 0 C40.2578125 -0.1953125 40.2578125 -0.1953125 44.125 -0.125 C46.04699219 -0.09792969 46.04699219 -0.09792969 48.0078125 -0.0703125 C49.48894531 -0.03550781 49.48894531 -0.03550781 51 0 C51.99219813 3.78471861 51.95320695 6.18092298 50.80004883 9.90698242 C50.51257278 10.8553447 50.22509674 11.80370697 49.9289093 12.7808075 C49.60818954 13.79544571 49.28746979 14.81008392 48.95703125 15.85546875 C48.63216232 16.91228348 48.3072934 17.96909821 47.97257996 19.05793762 C47.28263058 21.29461705 46.58711845 23.52958699 45.88647461 25.76293945 C44.82298093 29.15407968 43.77619424 32.55000985 42.73242188 35.94726562 C42.05827441 38.12530442 41.38317409 40.30304857 40.70703125 42.48046875 C40.39643265 43.48498581 40.08583405 44.48950287 39.76582336 45.52445984 C33.16909528 66.49835481 33.16909528 66.49835481 26.0625 71.3125 C19.2317156 73.58942813 12.17303606 74.31598134 5.625 71.125 C3.32493535 69.88791344 1.86781078 68.86781078 0 67 C0.23711219 62.61342452 1.90073189 60.03769325 5 57 C8.1640625 56.80078125 8.1640625 56.80078125 11.625 57.3125 C13.74154769 57.60976793 15.86770949 57.85344095 18 58 C20.46278801 55.53721199 20.99771255 53.29323018 22 50 C20.3603125 50.1546875 20.3603125 50.1546875 18.6875 50.3125 C17.470625 50.209375 16.25375 50.10625 15 50 C11.78192223 45.89792509 10.42612058 40.83383893 8.828125 35.9375 C8.54144958 35.06859131 8.25477417 34.19968262 7.95941162 33.30444336 C7.35787483 31.47323232 6.75965237 29.64092962 6.16455078 27.80761719 C5.25171425 25.00526265 4.31975936 22.20974501 3.38671875 19.4140625 C2.80350764 17.63059373 2.2214373 15.84675142 1.640625 14.0625 C1.22046112 12.81231079 1.22046112 12.81231079 0.79180908 11.53686523 C-0.54611794 7.35053511 -1.48839289 4.32748593 0 0 Z " fill="#041B33" transform="translate(233,21)"/>
<path d="M0 0 C1.08410156 -0.00257812 2.16820312 -0.00515625 3.28515625 -0.0078125 C5.9375 0.125 5.9375 0.125 6.9375 1.125 C7.02608646 3.86394085 7.05273479 6.5775327 7.03515625 9.31640625 C7.0337413 10.13624496 7.03232635 10.95608368 7.03086853 11.80076599 C7.02525289 14.42971382 7.01269779 17.05857773 7 19.6875 C6.99498701 21.46549357 6.99042376 23.24348846 6.98632812 25.02148438 C6.97527839 29.38935545 6.95800331 33.75716348 6.9375 38.125 C8.2575 38.125 9.5775 38.125 10.9375 38.125 C11.185 37.58101562 11.4325 37.03703125 11.6875 36.4765625 C13.2065095 33.61892588 15.0242609 31.10960185 16.9375 28.5 C17.63875 27.53835937 18.34 26.57671875 19.0625 25.5859375 C20.9375 23.125 20.9375 23.125 22.9375 21.125 C26.1953125 20.9296875 26.1953125 20.9296875 30.0625 21 C31.98449219 21.02707031 31.98449219 21.02707031 33.9453125 21.0546875 C35.42644531 21.08949219 35.42644531 21.08949219 36.9375 21.125 C37.22880219 25.08388661 36.7950961 26.91302334 34.27734375 29.97265625 C33.73142578 30.66037109 33.18550781 31.34808594 32.62304688 32.05664062 C31.45419546 33.48146397 30.28492203 34.90594121 29.11523438 36.33007812 C28.57060547 37.01650391 28.02597656 37.70292969 27.46484375 38.41015625 C26.95687256 39.02769775 26.44890137 39.64523926 25.92553711 40.28149414 C24.733716 42.08389252 24.733716 42.08389252 25.17724609 44.18847656 C26.2847128 47.00942258 27.91202237 49.31644688 29.625 51.8125 C30.69621094 53.39611328 30.69621094 53.39611328 31.7890625 55.01171875 C33.12147842 56.94251054 34.46788271 58.86382529 35.8359375 60.76953125 C36.38507812 61.54683594 36.93421875 62.32414062 37.5 63.125 C37.99628906 63.805625 38.49257813 64.48625 39.00390625 65.1875 C39.9375 67.125 39.9375 67.125 39.58984375 69.375 C39.37457031 69.9525 39.15929687 70.53 38.9375 71.125 C25.869798 72.48727009 25.869798 72.48727009 21.59375 69.47265625 C19.76784254 67.11142592 18.33682218 64.76129207 16.9375 62.125 C15.88232053 60.28744356 14.81997883 58.45397859 13.75 56.625 C13.30269531 55.7896875 12.85539062 54.954375 12.39453125 54.09375 C10.65048625 51.73718518 9.72161654 51.67477311 6.9375 51.125 C6.94273682 51.69532959 6.94797363 52.26565918 6.95336914 52.85327148 C6.97408221 55.42300323 6.9871419 57.99271747 7 60.5625 C7.00837891 61.46033203 7.01675781 62.35816406 7.02539062 63.28320312 C7.02861328 64.13720703 7.03183594 64.99121094 7.03515625 65.87109375 C7.04039307 66.66185303 7.04562988 67.4526123 7.05102539 68.26733398 C6.9375 70.125 6.9375 70.125 5.9375 71.125 C3.96130553 71.25014928 1.98011827 71.3007276 0 71.3125 C-1.08152344 71.32667969 -2.16304688 71.34085937 -3.27734375 71.35546875 C-6.0625 71.125 -6.0625 71.125 -8.0625 69.125 C-8.30300903 66.302948 -8.30300903 66.302948 -8.28955078 62.65576172 C-8.28984283 61.99222687 -8.29013489 61.32869202 -8.29043579 60.64505005 C-8.28904056 58.44813028 -8.27347067 56.25154814 -8.2578125 54.0546875 C-8.25408305 52.53297104 -8.25123576 51.01125219 -8.24923706 49.48953247 C-8.24159523 45.48143908 -8.22194213 41.4734903 -8.1998291 37.4654541 C-8.17938244 33.37672888 -8.17023788 29.28798034 -8.16015625 25.19921875 C-8.13869667 17.17441276 -8.10455421 9.14972436 -8.0625 1.125 C-5.31744537 -0.24752731 -3.05922588 -0.00729255 0 0 Z " fill="#051B33" transform="translate(493.0625,-0.125)"/>
<path d="M0 0 C0.804375 0.598125 1.60875 1.19625 2.4375 1.8125 C2.13512101 5.34025489 1.40769149 6.85058865 -0.8125 9.6875 C-3.5625 11.8125 -3.5625 11.8125 -6 11.8125 C-8.5625 10.8125 -8.5625 10.8125 -11.375 9.25 C-15.43745231 7.41791366 -18.14565794 7.58404265 -22.5625 7.8125 C-22.5625 9.1325 -22.5625 10.4525 -22.5625 11.8125 C-21.32113281 12.13863281 -20.07976562 12.46476562 -18.80078125 12.80078125 C-17.15874601 13.241785 -15.51682486 13.68321367 -13.875 14.125 C-13.05837891 14.33833984 -12.24175781 14.55167969 -11.40039062 14.77148438 C-6.07221967 16.21677771 -1.50453922 17.6025933 2.25 21.875 C4.00749238 26.22248115 4.09799439 30.18903925 3.4375 34.8125 C0.55536774 40.798467 -3.65816018 43.67354321 -9.75 46.0625 C-19.87029204 48.05337712 -27.9870542 46.69978443 -37.0625 42 C-39.5625 39.8125 -39.5625 39.8125 -40.4375 36.5625 C-40.47875 35.655 -40.52 34.7475 -40.5625 33.8125 C-39.49142883 32.94300683 -38.40504056 32.09235795 -37.3125 31.25 C-36.70921875 30.77433594 -36.1059375 30.29867187 -35.484375 29.80859375 C-33.5625 28.8125 -33.5625 28.8125 -31.53125 29.03125 C-29.5625 29.8125 -29.5625 29.8125 -26.3125 31.875 C-22.25737811 34.29230808 -19.2208819 34.20727813 -14.5625 33.8125 C-13.5725 33.3175 -13.5725 33.3175 -12.5625 32.8125 C-12.5625 31.8225 -12.5625 30.8325 -12.5625 29.8125 C-14.40714844 29.34070312 -14.40714844 29.34070312 -16.2890625 28.859375 C-17.92203043 28.42767083 -19.55483442 27.99534622 -21.1875 27.5625 C-21.99574219 27.35753906 -22.80398438 27.15257812 -23.63671875 26.94140625 C-29.62582078 25.334574 -34.24054123 23.44405328 -38.4375 18.6875 C-40.1296505 14.36311539 -40.2093421 10.39184806 -39.5625 5.8125 C-37.0379478 0.35946725 -33.79435691 -1.66499756 -28.5625 -4.1875 C-18.95259748 -7.22962847 -8.32776978 -5.45478627 0 0 Z " fill="#041A32" transform="translate(326.5625,25.1875)"/>
<path d="M0 0 C2.76601146 2.38062362 5.25452315 4.77370344 7 8 C6.84869435 10.59171928 6.33872493 11.64579571 4.546875 13.51953125 C-0.23840013 16.96284879 -0.23840013 16.96284879 -3.5625 17.125 C-6 16 -6 16 -8.875 13.4375 C-11.8186381 10.72305258 -11.8186381 10.72305258 -15.5625 10.5 C-19.89907279 11.13077422 -22.64512391 12.19349855 -25.3125 15.75 C-26.90380071 20.95789324 -26.37355069 26.1398724 -24 31 C-20.16951563 33.40773303 -16.42238918 33.59964599 -12 33 C-9.79940066 31.54529669 -7.85654897 29.97706333 -5.89453125 28.21484375 C-4 27 -4 27 -1.99609375 27.125 C0.31637318 28.13868413 1.87894465 29.37135382 3.75 31.0625 C4.67039062 31.88427734 4.67039062 31.88427734 5.609375 32.72265625 C6.29773438 33.35494141 6.29773438 33.35494141 7 34 C5.29528711 40.44002646 0.29070395 43.65252709 -5.1875 46.875 C-13.41242113 49.30202591 -22.29553003 48.94113272 -30 45 C-35.61424077 41.32400902 -39.51440756 36.64621527 -41.58203125 30.1796875 C-42.99269607 22.82313638 -43.06874421 15.15239097 -39.12109375 8.63671875 C-38.56615234 7.82654297 -38.56615234 7.82654297 -38 7 C-37.1646875 5.6696875 -37.1646875 5.6696875 -36.3125 4.3125 C-26.61947793 -5.38052207 -11.72276146 -7.1407684 0 0 Z " fill="#041A32" transform="translate(474,24)"/>
<path d="M0 0 C1.1859375 0.00257813 2.371875 0.00515625 3.59375 0.0078125 C4.7796875 0.00523437 5.965625 0.00265625 7.1875 0 C10.09375 0.1328125 10.09375 0.1328125 11.09375 1.1328125 C11.16646741 3.48594805 11.17745868 5.84114918 11.15625 8.1953125 C11.14722656 9.48566406 11.13820313 10.77601562 11.12890625 12.10546875 C11.11730469 13.10449219 11.10570312 14.10351562 11.09375 15.1328125 C12.16496094 15.12121094 13.23617188 15.10960937 14.33984375 15.09765625 C15.73697743 15.08827951 17.13411299 15.07917919 18.53125 15.0703125 C19.23830078 15.06193359 19.94535156 15.05355469 20.67382812 15.04492188 C22.48068559 15.03627662 24.28762603 15.08061239 26.09375 15.1328125 C27.09375 16.1328125 27.09375 16.1328125 27.2265625 18.6015625 C27.22398437 19.601875 27.22140625 20.6021875 27.21875 21.6328125 C27.22261719 23.13328125 27.22261719 23.13328125 27.2265625 24.6640625 C27.09375 27.1328125 27.09375 27.1328125 26.09375 28.1328125 C23.56325598 28.20594817 21.06070163 28.22528777 18.53125 28.1953125 C17.82033203 28.19080078 17.10941406 28.18628906 16.37695312 28.18164062 C14.61584987 28.16982114 12.85478964 28.15188513 11.09375 28.1328125 C11.23193532 31.61232773 11.38057601 35.09131745 11.53125 38.5703125 C11.57056641 39.56353516 11.60988281 40.55675781 11.65039062 41.58007812 C11.69228516 42.52431641 11.73417969 43.46855469 11.77734375 44.44140625 C11.81400146 45.31595459 11.85065918 46.19050293 11.88842773 47.09155273 C11.87556066 49.1255527 11.87556066 49.1255527 13.09375 50.1328125 C16.62012472 50.28954027 19.71280851 50.17310219 23.09375 49.1328125 C26.74150386 53.01590532 27.67900633 55.84483068 28.09375 61.1328125 C22.63138069 65.58363194 17.81536403 66.6056751 10.8828125 66.4375 C6.55499211 65.9647129 3.51301091 64.81240799 0.09375 62.1328125 C-4.57858746 55.1201715 -4.39187688 48.87975313 -4.15625 40.6328125 C-4.13820313 39.42882813 -4.12015625 38.22484375 -4.1015625 36.984375 C-4.05471554 34.03301645 -3.98913005 31.08334214 -3.90625 28.1328125 C-6.54625 28.1328125 -9.18625 28.1328125 -11.90625 28.1328125 C-11.93311553 26.15371852 -11.95258375 24.17452279 -11.96875 22.1953125 C-11.98035156 21.09316406 -11.99195313 19.99101562 -12.00390625 18.85546875 C-11.90625 16.1328125 -11.90625 16.1328125 -10.90625 15.1328125 C-8.57327567 15.09188313 -6.23919775 15.09039527 -3.90625 15.1328125 C-3.91785156 14.13378906 -3.92945313 13.13476562 -3.94140625 12.10546875 C-3.95042969 10.81511719 -3.95945312 9.52476563 -3.96875 8.1953125 C-3.98035156 6.90753906 -3.99195313 5.61976562 -4.00390625 4.29296875 C-3.87671815 0.17716185 -3.87671815 0.17716185 0 0 Z " fill="#041A32" transform="translate(344.90625,5.8671875)"/>
<path d="M0 0 C0.75639771 -0.00365067 1.51279541 -0.00730133 2.29211426 -0.01106262 C4.79392913 -0.01917264 7.29509722 -0.00555465 9.796875 0.0090332 C11.53417968 0.00955176 13.27148496 0.00903424 15.00878906 0.00752258 C18.65047969 0.00761233 22.29194903 0.01804601 25.93359375 0.03613281 C30.60452565 0.05882008 35.27513413 0.05936432 39.94610596 0.05261517 C43.53372071 0.04927568 47.12126156 0.05590489 50.7088623 0.0657444 C52.43127048 0.06959704 54.15368688 0.07074435 55.87609863 0.06915855 C58.28214211 0.06878821 60.68776902 0.08139919 63.09375 0.09765625 C64.16453796 0.09394012 64.16453796 0.09394012 65.25695801 0.09014893 C68.91181057 0.12961581 70.41734469 0.28596091 73.546875 2.37231445 C73.91015625 5.34106445 73.91015625 5.34106445 73.859375 8.87231445 C73.85550781 10.03762695 73.85164063 11.20293945 73.84765625 12.40356445 C73.546875 15.37231445 73.546875 15.37231445 71.546875 17.37231445 C68.99829853 17.57585984 66.55791478 17.65553635 64.0078125 17.64697266 C63.23044739 17.65208359 62.45308228 17.65719452 61.65216064 17.66246033 C59.07532107 17.67639279 56.49874782 17.67539701 53.921875 17.6730957 C52.13590393 17.67698031 50.34993378 17.68131448 48.56396484 17.68608093 C44.8180034 17.69355077 41.0721362 17.69324612 37.32617188 17.68798828 C32.51717441 17.68218916 27.70856152 17.69913153 22.89962769 17.72233295 C19.21083304 17.73703757 15.52213175 17.73794654 11.83331299 17.73482323 C10.05982704 17.73533798 8.28633607 17.74060436 6.51287842 17.75063515 C4.03697426 17.76292078 1.56182878 17.7562562 -0.9140625 17.74462891 C-1.65178894 17.75227264 -2.38951538 17.75991638 -3.14959717 17.76779175 C-5.18896484 17.74653625 -5.18896484 17.74653625 -8.453125 17.37231445 C-10.67577371 14.03834139 -10.74987963 12.77716555 -10.765625 8.87231445 C-10.78238281 7.91325195 -10.79914062 6.95418945 -10.81640625 5.96606445 C-10.453125 3.37231445 -10.453125 3.37231445 -9.39624023 1.73347473 C-6.45144026 -0.32936986 -3.46631557 -0.03711604 0 0 Z " fill="#00C2F6" transform="translate(12.453125,30.627685546875)"/>
<path d="M0 0 C3.06761169 -0.38095093 3.06761169 -0.38095093 7.06420898 -0.38818359 C7.79119995 -0.39344055 8.51819092 -0.39869751 9.26721191 -0.40411377 C11.677056 -0.41734743 14.08624262 -0.40856332 16.49609375 -0.3984375 C18.16756823 -0.4004575 19.83904185 -0.40336831 21.51051331 -0.40713501 C25.01694107 -0.41156309 28.52313983 -0.40511271 32.02954102 -0.39111328 C36.52683749 -0.37403417 41.0235964 -0.38385121 45.52087307 -0.40183067 C48.97382157 -0.41266681 52.42664247 -0.40922275 55.8795948 -0.4014473 C57.53781256 -0.39944413 59.19604185 -0.40190867 60.85424614 -0.40888596 C63.17194199 -0.41649636 65.48876567 -0.40490236 67.80639648 -0.38818359 C69.12606918 -0.38579681 70.44574188 -0.38341003 71.80540466 -0.38095093 C75 0 75 0 76.92469788 1.3621521 C78.49618389 3.75576317 78.39787261 5.66379593 78.375 8.5 C78.38660156 9.93859375 78.38660156 9.93859375 78.3984375 11.40625 C78 14 78 14 76.91796875 15.6378479 C73.98505892 17.72081681 71.47764345 17.38163533 67.9140625 17.38818359 C66.83798737 17.39606903 66.83798737 17.39606903 65.74017334 17.40411377 C63.36822758 17.41732045 60.99695262 17.40857376 58.625 17.3984375 C56.97737499 17.40045805 55.32975085 17.40336934 53.68212891 17.40713501 C50.22875454 17.41155925 46.77561294 17.40512421 43.32226562 17.39111328 C38.8933764 17.37402118 34.46503254 17.38386185 30.03616333 17.40183067 C26.63382856 17.4126659 23.23162331 17.40922341 19.82928467 17.4014473 C18.19618668 17.39944456 16.56307698 17.40190716 14.92999268 17.40888596 C12.64832362 17.41649634 10.36754048 17.40490309 8.0859375 17.38818359 C6.1376001 17.38460342 6.1376001 17.38460342 4.14990234 17.38095093 C1 17 1 17 -0.92016602 15.6378479 C-2.5000901 13.24148384 -2.36213558 11.34068218 -2.3125 8.5 C-2.30669922 7.06140625 -2.30669922 7.06140625 -2.30078125 5.59375 C-2 3 -2 3 0 0 Z " fill="#00C2F6" transform="translate(4,9)"/>
<path d="M0 0 C1.05048523 0.00607269 1.05048523 0.00607269 2.12219238 0.01226807 C2.86054321 0.00876343 3.59889404 0.00525879 4.35961914 0.00164795 C6.80661346 -0.00717336 9.25331999 -0.00131891 11.70031738 0.00543213 C13.39660701 0.00408559 15.09289627 0.00214515 16.78918457 -0.00036621 C20.34683908 -0.00331801 23.90439327 0.00098194 27.46203613 0.01031494 C32.02882879 0.02170954 36.59538638 0.01515036 41.16217041 0.00317001 C44.66566752 -0.0040471 48.16910865 -0.00176135 51.67260742 0.0034256 C53.35677111 0.00476251 55.04093984 0.00311293 56.72509766 -0.00153351 C59.07635012 -0.00659634 61.42721861 0.0011078 63.77844238 0.01226807 C64.82892761 0.00619537 64.82892761 0.00619537 65.90063477 0 C70.72178823 0.04252797 70.72178823 0.04252797 72.95031738 2.27105713 C73.21594238 5.02105713 73.21594238 5.02105713 73.20031738 8.27105713 C73.20805176 9.87980713 73.20805176 9.87980713 73.21594238 11.52105713 C72.95031738 14.27105713 72.95031738 14.27105713 70.95031738 16.27105713 C68.52201677 16.46920897 66.20777719 16.5438898 63.77844238 16.52984619 C63.04009155 16.53335083 62.30174072 16.53685547 61.54101562 16.54046631 C59.0940213 16.54928762 56.64731478 16.54343317 54.20031738 16.53668213 C52.50402775 16.53802867 50.8077385 16.5399691 49.1114502 16.54248047 C45.55379569 16.54543227 41.9962415 16.54113232 38.43859863 16.53179932 C33.87180598 16.52040472 29.30524838 16.52696389 24.73846436 16.53894424 C21.23496724 16.54616135 17.73152612 16.54387561 14.22802734 16.53868866 C12.54386365 16.53735175 10.85969492 16.53900133 9.17553711 16.54364777 C6.82428464 16.5487106 4.47341615 16.54100645 2.12219238 16.52984619 C1.4218689 16.53389465 0.72154541 16.53794312 0 16.54211426 C-4.82115346 16.49958628 -4.82115346 16.49958628 -7.04968262 14.27105713 C-7.31530762 11.52105713 -7.31530762 11.52105713 -7.29968262 8.27105713 C-7.30483887 7.19855713 -7.30999512 6.12605713 -7.31530762 5.02105713 C-6.83476089 0.04598517 -4.46029396 0.03934479 0 0 Z " fill="#00C2F6" transform="translate(9.0496826171875,53.72894287109375)"/>
<path d="M0 0 C0.89432739 -0.00630432 1.78865479 -0.01260864 2.71008301 -0.019104 C4.16166809 -0.01303131 4.16166809 -0.01303131 5.64257812 -0.00683594 C6.6338269 -0.00874939 7.62507568 -0.01066284 8.6463623 -0.01263428 C10.7445501 -0.01399679 12.84274631 -0.01029576 14.94091797 -0.00195312 C18.16067358 0.00874535 21.37987121 -0.0018463 24.59960938 -0.01464844 C26.63476686 -0.01332685 28.669924 -0.01076449 30.70507812 -0.00683594 C31.67280151 -0.0108844 32.6405249 -0.01493286 33.63757324 -0.019104 C34.53190063 -0.01279968 35.42622803 -0.00649536 36.34765625 0 C37.13660278 0.00159119 37.92554932 0.00318237 38.73840332 0.00482178 C40.67382812 0.25878906 40.67382812 0.25878906 42.67382812 2.25878906 C42.93945312 5.00878906 42.93945312 5.00878906 42.92382812 8.25878906 C42.9315625 9.86753906 42.9315625 9.86753906 42.93945312 11.50878906 C42.67382812 14.25878906 42.67382812 14.25878906 40.67382812 16.25878906 C38.73840332 16.51275635 38.73840332 16.51275635 36.34765625 16.51757812 C35.00616516 16.52703461 35.00616516 16.52703461 33.63757324 16.53668213 C32.66984985 16.53263367 31.70212646 16.52858521 30.70507812 16.52441406 C29.21820496 16.52728424 29.21820496 16.52728424 27.70129395 16.5302124 C25.60310615 16.53157492 23.50490994 16.52787388 21.40673828 16.51953125 C18.18698267 16.50883277 14.96778504 16.51942442 11.74804688 16.53222656 C9.71288939 16.53090498 7.67773225 16.52834261 5.64257812 16.52441406 C4.67485474 16.52846252 3.70713135 16.53251099 2.71008301 16.53668213 C1.81575562 16.53037781 0.92142822 16.52407349 0 16.51757812 C-0.78894653 16.51598694 -1.57789307 16.51439575 -2.39074707 16.51275635 C-4.32617187 16.25878906 -4.32617187 16.25878906 -6.32617188 14.25878906 C-6.59179688 11.50878906 -6.59179688 11.50878906 -6.57617188 8.25878906 C-6.58132812 7.18628906 -6.58648437 6.11378906 -6.59179688 5.00878906 C-6.14505466 0.38369317 -4.1732829 0.00841688 0 0 Z " fill="#01C2F6" transform="translate(8.326171875,75.7412109375)"/>
<path d="M0 0 C2.73578174 2.19118819 4.43292956 4.86585911 6 8 C6.2568576 12.01339995 6.00553831 15.59963168 3.6171875 18.92578125 C0.60104971 21.75932774 -1.43925394 22.9016235 -5.5625 23.625 C-10.24111164 22.77434334 -13.41421683 21.01826949 -16.375 17.25 C-17.3523507 13.73153747 -17.78133965 10.5623791 -17 7 C-12.57939075 -0.07839886 -8.14323103 -2.33467418 0 0 Z " fill="#F8F8F9" transform="translate(406,35)"/>
<path d="M0 0 C3.10354599 2.06903066 4.5785371 3.54595298 5.625 7.15625 C6.21565658 10.84785361 6.27535301 13.31161748 4.875 16.8125 C1.65933189 20.5641128 -0.41110934 22.76888863 -5.4375 23.5 C-9.67821532 22.90481189 -11.76473397 21.78383356 -15 19 C-17.32396089 15.09152033 -17.61695986 11.47295896 -17 7 C-12.34651404 -0.19434639 -8.33067121 -2.04310071 0 0 Z " fill="#F8F8F9" transform="translate(151,35)"/>
<path d="M0 0 C3.6578218 2.03993908 5.66946174 3.50419262 8 7 C8.66624845 11.07463524 8.94496094 15.24356703 6.94921875 18.953125 C3.87413239 22.69039809 2.02924854 23.89707515 -2.75 24.375 C-6.06751516 24.34478584 -7.85116622 23.77284903 -10.4375 21.6875 C-14.0067995 17.94408833 -14.2991238 15.09971919 -14.21484375 9.99609375 C-13.89350529 7.01056732 -12.90308743 5.29682965 -11 3 C-7.33060635 0.12398876 -4.62619262 -0.66088466 0 0 Z " fill="#F9FAFA" transform="translate(205,34)"/>
<path d="M0 0 C0 3.75832067 -0.93607224 4.3698162 -3.4375 7.0625 C-6.02679823 9.8184536 -6.02679823 9.8184536 -8 13 C-8.66 12.67 -9.32 12.34 -10 12 C-9.09232898 10.55680308 -8.17343894 9.12065894 -7.25 7.6875 C-6.48429687 6.48673828 -6.48429687 6.48673828 -5.703125 5.26171875 C-3.99722239 2.99631139 -2.34191855 1.57315833 0 0 Z " fill="#141F35" transform="translate(443,24)"/>
</svg>
